<svg id="Capa_1" data-name="Capa 1" xmlns="http://www.w3.org/2000/svg" viewBox="0 0 1492.8 1045.59"><defs><style>.cls-1{font-size:198.28px;font-family:Montserrat-ExtraLight, Montserrat;font-weight:200;letter-spacing:0.2em;}.cls-2{font-size:43.54px;font-family:Montserrat-Regular, Montserrat;letter-spacing:0.5em;}.cls-3{letter-spacing:0.49em;}.cls-4{letter-spacing:0.49em;}.cls-5{letter-spacing:0.49em;}.cls-6{letter-spacing:0.5em;}.cls-7{letter-spacing:0.49em;}.cls-8{fill:#16910c;}.cls-9{fill:#ff000d;}.cls-10{fill:#ffec06;}.cls-11{fill:#009eff;}</style></defs><text class="cls-1" transform="translate(456.8 653.44)">MERAKI</text><text class="cls-2" transform="translate(523.96 734.09)">LIBERA <tspan class="cls-3" x="327.24" y="0">T</tspan><tspan x="373.39" y="0">U N</tspan><tspan class="cls-4" x="519.98" y="0">I</tspan><tspan class="cls-5" x="554.55" y="0">V</tspan><tspan class="cls-6" x="606.06" y="0">EL </tspan><tspan class="cls-7" x="737.55" y="0">P</tspan><tspan x="790.14" y="0">RO</tspan></text><path class="cls-8" d="M30.93,780.32l161.49-73.43a8,8,0,0,0,4.24-4.65l23.94-68.91a1.11,1.11,0,0,0-1.72-1.24L29.21,777.44A1.69,1.69,0,0,0,30.93,780.32Z" transform="translate(-28.53 -13.41)"/><path class="cls-9" d="M159.36,617.47c-5,8.2,4,17.72,12.51,13.23L574,418s56.6-29.47,58.93-68.24-4.65-61.25-23.26-111.65-42.65-105.45-42.65-105.45-11.24-26.37,1.94-41.1,19-22.1,36.44-24.81,69.31,2.79,72.41,4.34,28.3,7.76,36.06,5.43S700.72,39.64,681.72,28.4,582.56-3.47,532.55,39.17C489.41,76,229.91,501.22,159.36,617.47Z" transform="translate(-28.53 -13.41)"/><path class="cls-10" d="M653.64,228.6a2.24,2.24,0,0,0,2.57,3.56c17.8-7.78,53.6-27.12,60.84-59.08,9.72-42.91,3-55.31,3-55.31S696.27,95,672,112.6C672,112.6,696.16,181,653.64,228.6Z" transform="translate(-28.53 -13.41)"/><path class="cls-11" d="M268.62,614.29l163.5-84.39a3.16,3.16,0,0,1,4.18,4.39L156.82,1017.14c-4,6.9-14.54,2.29-12.19-5.33L267.05,616.16A3.1,3.1,0,0,1,268.62,614.29Z" transform="translate(-28.53 -13.41)"/><path d="M187.43,643.18a11.84,11.84,0,0,1-10-17.92h0C254.23,498.74,508.08,83.1,551.13,46.4,603.75,1.53,678,29.91,694.94,40,711.73,49.9,731,78.37,729.86,88.1a4.7,4.7,0,0,1-3.26,4.17c-8.67,2.59-34.77-4.09-37.76-5.58s-45.9-11.35-63-8.7c-15.79,2.46-21.25,8.58-33.22,22l-1.85,2.07c-12,13.44-1.64,38.38-1.53,38.63.23.53,24.27,55.67,42.69,105.56,18.83,51,25.72,73.91,23.4,112.6C653,398.48,597.55,427.78,595.19,429L193.05,641.76A12,12,0,0,1,187.43,643.18Zm-6-15.51a6.87,6.87,0,0,0,.91,8.56,7,7,0,0,0,8.53,1.41L593,424.89c.57-.3,55.48-29.33,57.69-66.32,2.28-38-4.15-59.34-23.12-110.71C609.23,198.1,585.25,143.08,585,142.53c-.49-1.15-11.67-27.92,2.34-43.57l1.84-2.07c11.95-13.4,18.54-20.78,36-23.49,17.89-2.78,61.78,7.14,65.76,9.13,2.8,1.4,27.29,7.39,34.32,5.29a7.49,7.49,0,0,0-.32-2.95c-2.55-10.1-18.06-32.44-32.35-40.9-15.39-9.11-88.4-36.68-138.43,6-42.51,36.25-296,451.37-372.71,577.73Z" transform="translate(-28.53 -13.41)"/><path d="M666.3,238.39a4.6,4.6,0,0,1-3.73-1.92,4.73,4.73,0,0,1,.28-5.95h0c40.57-46,17.7-112.55,17.47-113.21l-.58-1.65,1.41-1c25.57-18.5,50.79,5.13,51,5.37l.44.57c.29.54,7,13.67-2.77,56.93-7.28,32.13-41.72,51.67-61.61,60.45A4.7,4.7,0,0,1,666.3,238.39Zm19-120.93c3.36,11,19.72,72.29-18.91,116.14h0l-.05.07c19.16-8.38,52.21-27,59-57.18,8.51-37.56,4.17-51.28,3.33-53.41C725.78,120.49,706,103.81,685.25,117.46Z" transform="translate(-28.53 -13.41)"/><circle cx="603.84" cy="109.32" r="20.68"/><path d="M152.17,1059a6.57,6.57,0,0,1-2.6-.55,6.07,6.07,0,0,1-3.44-7.52L275.68,632.22a7.49,7.49,0,0,1,3.69-4.4l161.51-83.36a5.9,5.9,0,0,1,7.82,8.2L157.43,1055.87A6,6,0,0,1,152.17,1059ZM281.5,632a2.81,2.81,0,0,0-1.37,1.65L150.58,1052.3a1.56,1.56,0,0,0,2.83,1.24L444.67,550.33a1.25,1.25,0,0,0-1.66-1.74Z" transform="translate(-28.53 -13.41)"/><path d="M35.43,802a2.93,2.93,0,0,1-1.76-5.26l196-150.21a3.91,3.91,0,0,1,6.07,4.39l-23.58,67.85a9.26,9.26,0,0,1-4.9,5.37L36.67,801.73h0A2.94,2.94,0,0,1,35.43,802Zm-.69-4.51ZM230.55,651.75l-182,139.48,156.84-71.31a4.63,4.63,0,0,0,2.43-2.67Z" transform="translate(-28.53 -13.41)"/></svg>